# xmcd
#
# Track frame offsets:
#  182
#  18375
#  49262
#  75115
#  106775
#  133007
#
# Disc length: 2144 seconds
#
# Revision: 2
# Processed by: cddbd v1.5.1PL2 Copyright (c) Steve Scherf et al.
# Submitted via: Collectorz.com_Music_Collector 6.9
#
DISCID=3c085e06
DTITLE=Starpoint - I Want You-You Want Me
DYEAR=1990
DGENRE=Dance
TTITLE0=I Want You-You Want Me(Edit)
TTITLE1=I Want You-You Want Me(12 Inch Extended Version)
TTITLE2=I Want You-You Want Me(Hip Hop Mix)
TTITLE3=I Want You-You Want Me(Def House Mix)
TTITLE4=I Want You-You Want Me(Red Zone Mix)
TTITLE5=I Want You-You Want Me(Bonus Beats)
EXTD=
EXTT0=
EXTT1=
EXTT2=
EXTT3=
EXTT4=
EXTT5=
PLAYORDER=
